<?xml version="1.0" encoding="iso-8859-1"?>
<!-- Generator: Adobe Illustrator 19.0.0, SVG Export Plug-In . SVG Version: 6.00 Build 0)  -->
<svg version="1.1" id="Capa_1" xmlns="http://www.w3.org/2000/svg" xmlns:xlink="http://www.w3.org/1999/xlink" x="0px" y="0px"
	 viewBox="0 0 512 512" style="enable-background:new 0 0 512 512;" xml:space="preserve">
<path style="fill:#FAD557;" d="M511.843,387.817l-18.477-128.055l18.508-143.551c0.776-6.019-2.152-11.914-7.419-14.932
	c-5.266-3.019-11.832-2.564-16.634,1.148L354.418,205.592L269.057,54.617C266.396,49.91,261.407,47,256,47
	c-5.407,0-10.396,2.91-13.057,7.617l-85.361,150.975L24.179,102.427c-4.8-3.712-11.366-4.164-16.634-1.148
	c-5.267,3.019-8.195,8.913-7.419,14.932l18.508,143.551L0.157,387.817c-0.746,5.173,1.254,10.361,5.279,13.695
	c4.023,3.333,9.493,4.333,14.437,2.635C92.997,379.045,174.648,365.776,256,365.776s163.003,13.268,236.126,38.371
	c4.931,1.693,10.406,0.705,14.437-2.635C510.589,398.178,512.589,392.99,511.843,387.817z"/>
<path style="fill:#FCB12B;" d="M511.843,387.817l-18.477-128.055l18.507-143.551c0.776-6.02-2.152-11.914-7.419-14.932
	c-5.266-3.019-11.832-2.564-16.634,1.148L354.418,205.592L269.057,54.617C266.396,49.91,261.407,47,256,47v318.776
	c81.352,0,163.003,13.269,236.126,38.371c4.931,1.693,10.406,0.705,14.437-2.635C510.589,398.178,512.589,392.99,511.843,387.817z"
	/>
<path style="fill:#72A3FC;" d="M501.866,435.808C425.648,409.646,340.63,395.817,256,395.817S86.352,409.646,10.134,435.808
	c-7.835,2.689-12.007,11.222-9.317,19.057s11.222,12.008,19.057,9.317C92.995,439.083,174.646,425.817,256,425.817
	s163.005,13.266,236.126,38.366c7.881,2.703,16.383-1.527,19.057-9.317C513.873,447.029,509.701,438.497,501.866,435.808z"/>
<path style="fill:#FD7F56;" d="M295.756,245.133l-26.138-56.605c-2.452-5.311-7.768-8.712-13.618-8.712
	c-5.85,0-11.166,3.4-13.618,8.712l-26.138,56.605c-1.843,3.989-1.843,8.587,0,12.576l26.138,56.605
	c2.452,5.311,7.768,8.712,13.618,8.712c5.85,0,11.166-3.4,13.618-8.712l26.138-56.605
	C297.599,253.72,297.599,249.123,295.756,245.133z"/>
<path style="fill:#2892FC;" d="M501.866,435.808C425.648,409.646,340.63,395.817,256,395.817v30
	c81.354,0,163.005,13.266,236.126,38.366c7.881,2.703,16.383-1.527,19.057-9.317C513.873,447.029,509.701,438.497,501.866,435.808z"
	/>
<path style="fill:#FC495C;" d="M295.756,245.133l-26.138-56.605c-2.452-5.311-7.768-8.712-13.618-8.712v143.209
	c5.849,0,11.166-3.4,13.618-8.712l26.138-56.605C297.599,253.72,297.599,249.123,295.756,245.133z"/>
<g>
</g>
<g>
</g>
<g>
</g>
<g>
</g>
<g>
</g>
<g>
</g>
<g>
</g>
<g>
</g>
<g>
</g>
<g>
</g>
<g>
</g>
<g>
</g>
<g>
</g>
<g>
</g>
<g>
</g>
</svg>
